<?xml version="1.0" ?><!DOCTYPE svg  PUBLIC '-//W3C//DTD SVG 1.1//EN'  'http://www.w3.org/Graphics/SVG/1.1/DTD/svg11.dtd'><svg enable-background="new 0 0 512 512" id="Layer_1" version="1.1" viewBox="0 0 512 512" xml:space="preserve" xmlns="http://www.w3.org/2000/svg" xmlns:xlink="http://www.w3.org/1999/xlink"><g><path d="M149.8,383.1   c-0.3,11.7-2.6,23.4-1.5,35.2c1.3,14.3-1.1,19.9,7.3,30.4c5.8,7.2,8.4,16.9,7.1,26.1" fill="none" stroke="#000000" stroke-linecap="round" stroke-miterlimit="10" stroke-width="8"/><path d="M155.6,376.8   c-0.3,13.6,4.4,27.2,12.8,37.8c7,8.8,16.9,16,19.8,26.9c2.3,8.2,0.1,16.9-1.3,25.3c-1.4,8.4-1.8,17.8,3.3,24.7" fill="none" stroke="#000000" stroke-linecap="round" stroke-miterlimit="10" stroke-width="8"/><path d="M148.8,367.1   c0.3,13.6-4.4,27.2-12.8,37.8c-7,8.8-16.9,16-19.8,26.9c-2.3,8.2-0.1,16.9,1.3,25.3c1.4,8.4,1.8,17.8-3.3,24.7" fill="none" stroke="#000000" stroke-linecap="round" stroke-miterlimit="10" stroke-width="8"/><polygon fill="#FFE235" points="148.8,400.4 7.3,188 148.8,22.9    290.2,188  " stroke="#000000" stroke-miterlimit="10" stroke-width="8"/><line fill="#FFE235" stroke="#000000" stroke-miterlimit="10" stroke-width="8" x1="148.8" x2="148.8" y1="22.9" y2="400.4"/><path d="M290.2,188c-44.6-41.1-85.8-55.3-139.7-55.4   C91.8,132.4,52.8,152.4,7.3,188" fill="none" stroke="#000000" stroke-miterlimit="10" stroke-width="8"/><path d="M150.5,132.6   c0,0,70.8,197.4,356.4,322" fill="none" stroke="#000000" stroke-linecap="round" stroke-miterlimit="10" stroke-width="8"/></g></svg>